<?xml version="1.0" encoding="UTF-8" ?>
<!DOCTYPE svg PUBLIC "-//W3C//DTD SVG 1.1//EN" "http://www.w3.org/Graphics/SVG/1.1/DTD/svg11.dtd">
<svg width="640pt" height="640pt" viewBox="0 0 640 640" version="1.1" xmlns="http://www.w3.org/2000/svg">
  <style>
    /* Default styles for light mode */
    .color-1 { fill: #272525; }
    .color-2 { fill: #f4f4f4; }
    .color-3 { fill: #dadada; }

    /* Styles for dark mode */
    @media (prefers-color-scheme: dark) {
      .color-1 { fill: #f4f4f4; }
      .color-2 { fill: #272525; }
      .color-3 { fill: #a9a9a9; }
    }
  </style>
<g id="color-1">
<path class="color-1" opacity="1.00" d=" M 69.45 44.67 C 75.32 44.12 81.63 44.11 86.88 47.18 C 94.44 51.19 100.12 59.25 100.03 67.98 C 100.83 81.94 88.35 94.19 74.90 95.58 C 67.59 96.39 60.54 92.52 55.70 87.29 C 51.05 82.45 49.90 75.43 49.43 69.00 C 48.37 57.29 58.17 46.45 69.45 44.67 M 56.80 52.81 C 51.40 57.95 49.46 65.86 50.96 73.06 C 51.85 76.64 52.29 80.47 54.40 83.60 C 58.10 89.29 64.26 93.41 70.99 94.45 C 75.73 95.08 80.23 93.17 84.53 91.48 C 89.89 88.29 94.46 83.65 97.08 77.95 C 100.69 69.83 99.01 59.63 92.76 53.26 C 83.80 43.10 65.93 42.67 56.80 52.81 Z" />
<path class="color-1" opacity="1.00" d=" M 558.66 44.83 C 575.26 40.31 593.54 57.22 590.03 74.10 C 588.64 78.30 588.04 83.54 583.92 86.04 C 585.60 82.86 587.14 79.59 588.27 76.17 C 593.54 60.30 577.28 43.13 561.25 45.55 C 556.38 46.08 552.11 48.67 548.01 51.17 C 550.20 47.38 554.66 45.86 558.66 44.83 Z" />
<path class="color-1" opacity="1.00" d=" M 539.58 68.00 C 539.96 62.15 541.69 55.13 547.14 52.00 C 543.54 56.95 540.34 62.67 540.81 69.01 C 540.64 75.31 543.67 80.99 547.24 85.96 C 541.21 82.36 539.83 74.47 539.58 68.00 Z" />
<path class="color-1" opacity="1.00" d=" M 67.25 56.19 C 73.35 52.48 81.70 54.52 86.32 59.68 C 90.45 64.57 90.53 71.99 87.51 77.45 C 85.87 80.51 82.93 82.49 80.23 84.54 C 80.75 85.31 81.25 86.09 81.75 86.87 C 79.54 87.21 77.33 87.79 75.85 89.58 C 76.06 88.90 76.48 87.55 76.69 86.87 C 69.96 87.73 64.12 83.52 60.02 78.64 C 59.53 77.16 59.38 75.59 59.17 74.05 C 57.95 67.12 61.11 59.73 67.25 56.19 M 72.34 62.33 C 67.39 64.22 65.36 71.04 68.74 75.23 C 72.24 81.00 81.81 77.06 82.15 70.96 C 82.96 65.81 77.40 60.62 72.34 62.33 Z" />
<path class="color-1" opacity="1.00" d=" M 549.80 71.94 C 548.65 63.23 556.20 54.45 565.00 54.43 C 574.07 55.21 581.08 64.14 580.03 73.16 C 578.95 79.95 573.25 85.26 566.83 87.16 C 562.92 87.08 559.25 85.34 556.17 83.06 C 553.24 79.93 550.26 76.36 549.80 71.94 M 561.38 63.22 C 554.74 66.59 557.59 77.26 564.22 78.67 C 568.82 79.24 572.80 74.47 572.11 70.04 C 571.77 65.14 566.10 60.44 561.38 63.22 Z" />
<path class="color-1" opacity="1.00" d=" M 530.65 76.15 C 534.06 80.16 538.92 83.28 540.93 88.24 C 537.34 85.12 534.11 81.61 531.05 77.97 C 529.35 79.81 527.46 81.47 525.48 83.01 C 531.22 89.51 537.34 95.68 543.80 101.46 C 545.59 103.17 547.24 105.01 548.92 106.83 C 550.59 105.02 552.30 103.23 554.04 101.47 C 552.28 99.81 550.43 98.25 548.61 96.66 C 546.10 94.35 543.80 91.81 541.73 89.10 C 545.29 90.73 547.37 94.24 550.41 96.57 C 552.13 98.12 554.42 99.46 555.03 101.86 C 553.29 104.23 551.22 106.36 548.97 108.23 C 543.25 102.57 537.34 97.07 531.68 91.32 C 528.86 88.44 525.58 85.77 524.08 81.91 C 526.80 80.66 529.00 78.64 530.65 76.15 Z" />
<path class="color-1" opacity="1.00" d=" M 111.75 80.02 C 113.41 80.33 116.16 81.49 114.55 83.52 C 109.62 88.91 104.20 93.86 99.14 99.14 C 95.92 101.99 93.52 105.68 90.03 108.23 C 87.51 106.16 85.06 103.79 83.77 100.73 C 89.73 96.83 94.34 91.33 99.28 86.28 C 100.14 85.35 101.23 84.69 102.34 84.11 C 99.02 88.77 94.86 92.73 90.73 96.65 C 88.91 98.35 86.99 99.93 85.05 101.47 C 86.73 103.27 88.42 105.07 90.11 106.88 C 91.61 105.33 93.08 103.76 94.57 102.20 C 101.17 95.80 107.32 88.95 114.03 82.67 C 113.27 81.78 112.51 80.90 111.75 80.02 Z" />
<path class="color-1" opacity="1.00" d=" M 182.60 96.54 C 179.86 89.66 186.08 81.87 193.08 81.50 C 195.22 81.37 197.41 81.31 199.52 81.75 C 205.83 83.16 210.53 89.55 210.04 96.00 C 210.25 99.47 208.98 103.16 205.87 105.01 C 208.39 100.60 210.39 95.16 207.87 90.28 C 204.92 82.81 194.92 80.46 188.30 84.32 C 184.66 86.56 182.13 91.27 183.60 95.51 C 185.60 101.11 189.27 107.02 195.48 108.43 C 198.90 109.45 202.09 107.39 205.03 105.94 C 203.07 109.17 198.84 110.71 195.25 109.62 C 188.90 108.16 184.86 102.25 182.60 96.54 Z" />
<path class="color-1" opacity="1.00" d=" M 433.94 85.03 C 437.08 80.92 443.24 81.02 447.77 82.31 C 454.93 84.29 459.37 93.19 455.81 99.91 C 453.35 103.92 449.70 107.41 445.30 109.19 C 441.23 110.13 436.34 109.91 433.19 106.81 C 428.24 102.42 426.94 94.72 429.92 88.87 C 430.53 87.49 431.88 86.73 433.11 85.98 C 429.17 90.99 428.12 98.14 431.87 103.59 C 434.90 108.17 440.99 109.68 446.01 107.71 C 449.73 105.35 453.41 102.41 455.26 98.30 C 457.42 92.32 453.51 85.24 447.48 83.47 C 442.97 81.83 438.16 83.20 433.94 85.03 Z" />
<path class="color-1" opacity="1.00" d=" M 519.60 87.19 C 524.39 91.46 528.70 96.23 533.31 100.69 C 535.43 103.00 538.02 105.12 539.00 108.22 C 532.61 101.77 526.12 95.42 519.91 88.79 C 518.10 90.40 516.28 92.01 514.48 93.64 C 521.80 102.43 530.16 110.31 538.46 118.17 C 539.74 116.28 541.08 114.42 542.55 112.66 C 542.43 112.22 542.18 111.35 542.06 110.91 C 542.67 111.53 544.71 112.32 543.52 113.41 C 541.90 115.52 540.33 117.67 538.85 119.88 C 534.41 116.44 530.69 112.22 526.69 108.32 C 521.97 103.49 516.78 99.02 513.11 93.30 C 515.29 91.29 517.48 89.28 519.60 87.19 Z" />
<path class="color-1" opacity="1.00" d=" M 571.60 93.62 C 575.79 92.13 579.41 89.45 583.00 86.90 C 580.46 91.53 575.14 93.70 570.36 95.21 C 565.57 95.85 559.97 95.99 555.96 92.89 C 561.07 93.91 566.48 95.33 571.60 93.62 Z" />
<path class="color-1" opacity="1.00" d=" M 70.03 88.33 C 73.39 88.32 68.59 91.33 70.03 88.33 Z" />
<path class="color-1" opacity="1.00" d=" M 74.14 88.29 C 77.48 88.41 72.61 91.27 74.14 88.29 Z" />
<path class="color-1" opacity="1.00" d=" M 115.23 92.25 C 114.85 90.50 115.52 89.84 117.25 90.27 C 116.88 91.24 116.21 91.90 115.23 92.25 Z" />
<path class="color-1" opacity="1.00" d=" M 193.37 90.28 C 197.06 88.98 202.32 92.54 200.79 96.70 C 199.33 100.77 192.78 100.56 191.35 96.57 C 190.00 94.42 190.70 90.98 193.37 90.28 Z" />
<path class="color-1" opacity="1.00" d=" M 436.14 97.07 C 436.48 94.11 437.34 90.08 441.08 89.97 C 446.59 89.11 449.80 96.39 446.11 100.27 C 442.46 100.47 438.70 99.94 436.14 97.07 Z" />
<path class="color-1" opacity="1.00" d=" M 123.47 104.47 C 126.03 102.40 128.16 99.83 130.86 97.95 C 132.97 99.55 135.05 101.25 136.78 103.26 C 137.51 104.45 135.88 105.43 135.38 106.39 C 129.59 113.23 123.19 119.53 116.76 125.77 C 114.75 127.58 113.45 130.27 110.78 131.24 C 109.66 128.34 106.55 126.13 106.09 123.16 C 109.22 119.61 111.94 115.33 116.22 113.08 C 113.80 116.17 111.11 119.04 108.83 122.25 C 108.19 122.66 107.55 123.07 106.91 123.48 C 108.72 125.63 110.40 127.89 112.01 130.19 C 112.40 128.94 112.81 127.70 113.20 126.45 C 114.91 125.48 116.55 124.37 117.96 122.99 C 124.33 116.96 130.33 110.55 135.96 103.83 C 134.16 102.36 132.38 100.87 130.63 99.34 C 126.11 103.64 121.73 108.08 117.05 112.21 C 118.11 108.88 121.01 106.74 123.47 104.47 Z" />
<path class="color-1" opacity="1.00" d=" M 501.88 104.90 C 503.92 102.40 506.19 99.93 509.01 98.32 C 512.83 100.17 515.20 103.93 518.14 106.85 C 522.98 111.70 527.75 116.63 532.13 121.90 C 533.08 122.82 533.33 124.36 532.48 125.44 C 531.09 127.50 529.51 129.63 527.20 130.72 C 526.35 129.90 525.62 128.98 524.90 128.07 C 525.94 128.40 526.99 128.75 528.05 129.10 C 529.39 127.42 530.81 125.79 531.88 123.92 C 530.57 121.53 528.54 119.65 526.75 117.64 C 520.92 111.44 515.21 105.11 509.07 99.23 C 507.18 101.12 505.27 102.99 503.31 104.80 C 509.49 111.31 515.89 117.61 522.00 124.19 C 522.76 125.09 523.47 126.04 524.16 127.01 C 519.67 124.22 516.50 119.87 512.86 116.14 C 509.30 112.29 505.27 108.90 501.88 104.90 Z" />
<path class="color-1" opacity="1.00" d=" M 102.90 115.55 C 107.84 110.53 112.78 105.49 117.98 100.73 C 116.98 104.11 113.92 106.17 111.62 108.62 C 107.97 112.01 104.82 115.94 100.89 119.01 C 99.08 118.94 98.14 117.15 96.98 116.02 C 95.99 114.62 94.15 113.38 94.41 111.45 C 95.47 110.33 96.89 109.67 98.24 109.00 C 97.36 110.10 96.50 111.21 95.62 112.32 C 97.19 114.28 98.77 116.24 100.34 118.19 C 101.19 117.31 102.05 116.43 102.90 115.55 Z" />
<path class="color-1" opacity="1.00" d=" M 174.16 106.16 C 176.24 104.02 178.48 101.95 181.25 100.74 C 182.63 103.92 184.86 106.55 187.11 109.12 C 185.72 111.91 183.36 114.02 181.29 116.30 C 173.00 124.67 164.71 133.05 156.11 141.10 C 144.17 153.83 131.53 165.87 119.35 178.35 C 117.74 180.04 116.02 181.82 113.59 182.18 C 111.35 178.63 107.65 175.78 107.07 171.39 C 108.71 170.18 110.39 169.02 112.17 168.01 C 110.84 169.60 109.46 171.16 108.42 172.95 C 110.14 175.93 112.47 178.49 114.52 181.23 C 118.04 178.20 121.19 174.77 124.47 171.47 C 134.04 161.71 143.82 152.17 153.36 142.37 C 164.19 131.41 175.79 121.17 185.82 109.43 C 183.67 107.26 181.93 104.76 180.46 102.09 C 175.73 105.82 171.85 110.49 167.13 114.22 C 168.80 111.01 171.69 108.72 174.16 106.16 Z" />
<path class="color-1" opacity="1.00" d=" M 310.21 106.28 C 313.25 105.04 315.94 103.04 319.06 101.99 C 320.68 102.02 322.14 102.81 323.62 103.39 C 362.01 120.79 399.38 140.41 438.22 156.81 C 451.55 162.43 465.17 167.28 478.80 172.11 C 479.76 172.78 481.96 172.65 481.87 174.21 C 482.36 194.11 481.31 214.07 482.52 233.96 C 482.38 246.30 482.93 258.66 481.96 270.97 C 482.40 291.75 480.75 312.60 476.77 333.01 C 473.82 348.87 468.43 364.15 461.70 378.78 C 451.14 403.20 435.68 425.22 418.11 445.09 C 416.14 447.22 414.36 449.69 411.64 450.92 C 414.64 446.87 418.15 443.25 421.44 439.45 C 437.23 420.78 451.17 400.31 460.80 377.75 C 468.63 360.98 474.21 343.18 477.03 324.88 C 481.81 297.18 481.08 268.99 481.17 241.00 C 481.15 229.67 481.01 218.33 481.01 207.00 C 481.01 196.06 480.22 185.11 481.17 174.19 C 449.57 163.71 419.03 150.32 389.09 135.80 C 369.22 126.40 349.57 116.57 329.56 107.47 C 326.13 106.02 322.87 103.89 319.15 103.32 C 293.80 115.00 268.69 127.26 243.62 139.55 C 215.62 151.94 187.81 165.10 158.48 174.13 C 159.01 186.75 158.51 199.38 158.61 212.00 C 158.67 235.00 158.22 258.00 158.53 281.00 C 158.57 307.94 162.67 334.99 171.59 360.46 C 180.59 384.71 192.72 407.91 208.46 428.49 C 214.46 436.20 221.27 443.23 227.31 450.90 C 224.40 449.55 222.53 446.84 220.42 444.55 C 214.44 437.51 208.19 430.67 202.95 423.04 C 189.12 403.71 178.31 382.31 170.11 360.03 C 162.77 338.68 158.85 316.21 157.65 293.69 C 157.12 284.82 157.93 275.91 157.12 267.05 C 156.73 262.36 157.55 257.70 157.50 253.01 C 157.47 229.01 157.47 205.00 157.50 181.00 C 157.50 178.60 157.28 176.22 157.02 173.85 C 161.84 171.34 167.25 170.41 172.24 168.34 C 184.90 163.38 197.72 158.79 210.05 153.06 C 221.02 148.49 231.74 143.38 242.65 138.66 C 252.43 133.76 262.35 129.13 272.13 124.22 C 284.90 118.40 297.26 111.71 310.21 106.28 Z" />
<path class="color-1" opacity="1.00" d=" M 457.71 101.88 C 461.96 102.24 464.19 106.32 467.11 108.89 C 470.87 113.16 476.10 116.15 478.87 121.24 C 471.76 115.57 465.69 108.74 458.90 102.70 C 457.01 105.11 455.12 107.51 453.21 109.90 C 454.23 111.25 455.25 112.62 456.29 113.97 C 454.53 113.03 452.67 111.93 451.83 110.03 C 453.62 107.19 455.92 104.72 457.71 101.88 Z" />
<path class="color-1" opacity="1.00" d=" M 497.57 108.72 C 502.71 112.41 506.45 117.66 511.10 121.92 C 514.41 126.28 518.60 129.92 521.95 134.20 C 521.90 137.71 518.65 140.30 516.27 142.54 C 515.99 141.85 515.43 140.47 515.15 139.77 C 515.59 140.00 516.47 140.45 516.91 140.68 C 518.38 138.75 519.77 136.77 521.20 134.83 C 519.70 133.34 518.29 131.75 516.59 130.50 C 514.91 130.16 513.18 130.34 511.50 130.23 C 512.70 129.73 513.92 129.24 515.15 128.77 C 510.04 122.00 503.72 116.29 497.96 110.10 C 496.26 112.12 494.46 114.06 492.57 115.89 C 493.16 116.91 493.76 117.93 494.38 118.95 C 493.06 118.27 491.85 117.35 491.17 116.01 C 493.01 113.34 495.52 111.23 497.57 108.72 Z" />
<path class="color-1" opacity="1.00" d=" M 538.52 110.02 C 539.93 109.57 540.41 110.06 539.98 111.47 C 538.59 111.88 538.10 111.40 538.52 110.02 Z" />
<path class="color-1" opacity="1.00" d=" M 142.75 111.00 C 144.63 112.15 148.45 113.02 147.85 115.83 C 146.03 118.61 143.45 120.78 141.28 123.28 C 138.58 125.95 136.21 129.17 132.70 130.84 C 136.97 125.26 142.50 120.82 146.90 115.36 C 145.47 113.94 144.07 112.51 142.75 111.00 Z" />
<path class="color-1" opacity="1.00" d=" M 158.88 120.88 C 161.19 118.77 163.03 115.81 166.24 115.04 C 158.23 123.42 149.45 131.04 141.51 139.51 C 133.16 147.87 125.00 156.48 116.10 164.26 C 117.32 161.87 119.26 160.00 121.16 158.16 C 133.81 145.81 145.98 132.96 158.88 120.88 Z" />
<path class="color-1" opacity="1.00" d=" M 457.27 114.78 C 458.24 115.13 458.90 115.80 459.25 116.79 C 457.51 117.17 456.85 116.50 457.27 114.78 Z" />
<path class="color-1" opacity="1.00" d=" M 296.06 129.11 C 303.97 124.97 312.26 121.56 319.99 117.09 C 326.32 120.52 332.94 123.38 339.37 126.61 C 376.13 144.12 412.31 162.97 450.27 177.82 C 456.10 180.10 461.76 182.85 467.85 184.40 C 467.35 196.93 468.16 209.47 467.99 222.00 C 467.83 247.35 468.95 272.75 466.80 298.04 C 465.38 319.07 461.19 339.98 453.92 359.78 C 440.38 394.03 419.39 425.31 392.67 450.67 C 380.34 463.29 366.07 473.86 351.06 483.05 C 341.12 489.62 330.59 495.21 319.96 500.53 C 315.95 499.43 312.49 496.93 308.72 495.24 C 294.88 488.71 282.40 479.77 269.76 471.25 C 244.15 451.29 221.40 427.28 204.76 399.29 C 192.69 379.36 183.79 357.56 178.03 334.99 C 171.02 304.85 171.05 273.72 171.56 242.96 C 171.92 223.35 171.61 203.73 171.97 184.13 C 183.53 181.10 194.31 175.89 205.30 171.32 C 223.53 163.95 241.13 155.19 258.98 146.96 C 271.52 141.40 283.66 134.98 296.06 129.11 M 224.86 172.81 C 210.54 179.27 196.23 185.97 181.12 190.41 C 181.04 216.94 180.65 243.47 180.48 270.00 C 180.62 300.33 184.61 330.97 195.50 359.42 C 199.66 369.62 204.31 379.64 209.82 389.19 C 215.49 398.73 221.08 408.38 228.16 416.97 L 228.90 417.13 C 231.84 422.03 235.76 426.23 239.57 430.46 C 253.69 445.75 268.94 460.25 286.63 471.34 C 297.92 478.12 308.64 486.07 320.87 491.09 C 340.06 480.01 359.12 468.42 376.00 453.97 C 388.01 443.35 399.42 431.90 408.96 418.97 C 412.86 415.13 415.82 410.42 419.10 406.05 C 431.85 387.88 441.65 367.67 448.38 346.53 C 456.03 322.49 458.86 297.16 458.77 272.00 C 458.81 245.02 458.23 218.05 458.56 191.07 C 431.88 180.96 405.74 169.43 380.15 156.82 C 364.35 148.92 348.34 141.46 332.62 133.40 C 328.42 131.40 324.38 129.04 320.00 127.45 C 288.33 142.60 257.04 158.70 224.86 172.81 Z" />
<path class="color-1" opacity="1.00" d=" M 119.88 130.86 C 124.50 126.77 127.78 121.07 133.31 118.08 C 129.40 122.89 124.83 127.10 120.84 131.84 C 119.82 132.89 118.77 133.91 117.72 134.93 C 118.83 136.19 119.90 137.48 120.94 138.81 C 121.33 139.55 121.73 140.29 122.15 141.03 C 125.09 137.62 128.26 134.38 131.87 131.67 C 130.99 134.00 129.00 135.58 127.31 137.31 C 125.51 139.06 124.02 141.24 121.67 142.29 C 119.98 139.84 118.07 137.53 116.50 134.99 C 116.83 133.16 118.75 132.20 119.88 130.86 Z" />
<path class="color-1" opacity="1.00" d=" M 460.23 117.77 C 461.22 118.11 461.89 118.78 462.24 119.78 C 460.52 120.16 459.84 119.49 460.23 117.77 Z" />
<path class="color-1" opacity="1.00" d=" M 463.23 120.75 C 464.21 121.08 464.90 121.73 465.29 122.70 C 463.56 123.14 462.88 122.50 463.23 120.75 Z" />
<path class="color-1" opacity="1.00" d=" M 479.75 122.05 C 482.74 122.72 484.52 125.39 486.63 127.37 C 492.14 133.21 498.23 138.43 503.82 144.18 C 506.30 146.74 509.24 149.00 510.86 152.25 C 506.38 148.73 502.60 144.44 498.47 140.54 C 492.20 134.40 485.68 128.52 479.75 122.05 Z" />
<path class="color-1" opacity="1.00" d=" M 182.52 124.12 C 188.75 130.00 194.76 136.11 200.78 142.21 C 201.85 143.82 204.75 145.63 202.87 147.67 C 198.64 149.64 194.20 151.12 189.80 152.67 C 182.85 154.73 176.34 158.49 169.00 159.01 C 164.45 159.20 161.25 155.21 159.09 151.71 C 157.41 149.84 159.71 148.19 160.88 146.85 C 165.55 142.53 169.45 137.45 174.30 133.31 C 177.44 130.62 180.23 127.56 182.52 124.12 M 181.20 128.73 C 177.17 131.80 173.68 135.50 170.04 139.00 C 168.69 140.20 167.92 141.84 167.26 143.49 C 167.00 143.40 166.48 143.22 166.22 143.13 C 163.90 145.44 161.59 147.75 159.35 150.14 C 161.10 152.53 162.78 155.09 165.25 156.81 C 168.63 158.60 172.52 157.26 175.99 156.45 C 184.82 152.82 194.05 150.28 202.77 146.37 C 196.62 138.98 189.25 132.77 182.71 125.75 C 182.02 126.67 181.52 127.66 181.20 128.73 Z" />
<path class="color-1" opacity="1.00" d=" M 456.44 124.07 C 459.90 127.14 462.35 131.12 465.61 134.39 C 469.18 138.15 472.97 141.70 476.64 145.36 C 478.58 147.35 480.61 149.46 481.45 152.18 C 480.52 155.11 479.02 157.86 478.54 160.94 C 476.01 160.31 473.41 159.92 470.99 158.95 C 465.30 156.62 459.16 155.72 453.42 153.55 C 447.56 151.41 441.62 149.43 436.00 146.71 C 435.91 146.30 435.72 145.48 435.62 145.07 C 442.01 137.54 449.81 131.37 456.44 124.07 M 436.41 145.78 C 445.21 149.17 453.92 152.92 463.10 155.16 C 466.16 156.02 469.21 156.87 472.24 157.83 C 472.59 157.43 473.30 156.63 473.65 156.23 C 473.73 156.88 473.90 158.17 473.99 158.82 C 475.20 158.79 476.41 158.75 477.64 158.72 C 478.34 156.45 479.40 154.30 480.14 152.04 C 477.53 146.86 472.56 143.49 468.72 139.30 C 466.25 136.48 463.65 133.78 460.79 131.37 L 460.75 130.68 C 459.47 129.03 458.22 127.35 456.84 125.80 C 449.77 132.18 442.92 138.82 436.41 145.78 Z" />
<path class="color-1" opacity="1.00" d=" M 503.27 127.77 C 504.24 128.13 504.90 128.81 505.26 129.78 C 503.52 130.17 502.86 129.50 503.27 127.77 Z" />
<path class="color-1" opacity="1.00" d=" M 506.22 130.74 C 507.19 131.09 507.86 131.74 508.24 132.72 C 506.51 133.14 505.83 132.48 506.22 130.74 Z" />
<path class="color-1" opacity="1.00" d=" M 482.05 138.69 C 490.13 144.63 496.28 152.63 503.47 159.53 C 510.39 166.38 517.36 173.18 524.29 180.02 C 525.19 179.28 526.08 178.54 526.98 177.80 C 526.62 179.41 525.48 182.14 523.50 180.54 C 511.82 169.91 500.83 158.51 489.90 147.11 C 487.25 144.34 483.79 142.22 482.05 138.69 Z" />
<path class="color-1" opacity="1.00" d=" M 511.73 153.11 C 513.30 153.80 514.69 154.85 515.87 156.11 C 520.13 160.52 524.36 164.99 529.00 169.02 C 530.62 170.36 531.85 172.08 533.01 173.82 C 531.40 175.06 529.76 176.32 527.82 176.99 C 529.01 175.68 530.20 174.36 531.39 173.05 C 524.62 166.63 517.69 160.31 511.73 153.11 Z" />
<path class="color-1" opacity="1.00" d=" M 144.04 164.06 C 147.74 160.50 150.58 155.34 155.87 153.99 C 158.25 156.07 162.36 158.68 160.57 162.38 C 157.22 163.84 153.55 164.32 150.04 165.25 C 148.66 170.74 149.08 176.42 148.56 182.01 C 148.12 187.02 148.90 192.01 149.99 196.89 C 148.79 196.85 147.58 196.80 146.38 196.74 C 141.11 189.98 134.72 184.24 128.93 177.95 C 133.82 173.16 138.98 168.66 144.04 164.06 M 153.55 156.98 C 154.54 159.06 155.70 161.05 156.92 163.01 C 157.29 162.38 158.04 161.12 158.41 160.49 C 158.92 160.50 159.93 160.53 160.43 160.54 C 159.54 159.51 158.55 158.56 157.28 158.03 C 156.71 156.92 156.15 155.81 155.59 154.70 C 154.88 155.44 154.20 156.20 153.55 156.98 M 138.67 170.81 C 139.38 172.29 139.26 173.87 138.69 175.37 C 138.58 174.38 138.36 172.40 138.25 171.41 C 135.59 173.47 132.99 175.61 130.56 177.95 C 133.53 181.14 136.75 184.08 139.63 187.36 C 142.66 190.32 145.09 193.92 148.65 196.30 C 148.02 192.55 146.83 188.83 147.26 184.99 C 147.84 178.79 147.57 172.51 148.54 166.36 C 148.87 163.25 152.64 163.63 154.88 162.82 C 154.14 160.77 153.42 158.71 152.79 156.63 C 147.91 161.19 144.02 166.72 138.67 170.81 Z" />
<path class="color-1" opacity="1.00" d=" M 482.32 158.31 C 484.03 158.05 485.76 158.08 487.49 158.04 C 487.36 161.07 485.06 162.87 482.21 163.27 C 482.17 161.65 480.64 159.54 482.32 158.31 M 485.22 159.35 C 485.81 159.94 485.81 159.94 485.22 159.35 Z" />
<path class="color-1" opacity="1.00" d=" M 149.22 162.16 C 149.79 162.74 149.79 162.74 149.22 162.16 Z" />
<path class="color-1" opacity="1.00" d=" M 489.44 163.70 C 491.21 163.69 493.09 163.23 494.81 163.85 C 497.43 166.06 499.80 168.58 502.75 170.39 C 502.48 171.26 502.22 172.13 501.97 173.00 C 504.48 174.58 507.09 176.02 509.70 177.46 C 507.77 181.64 503.57 184.19 500.61 187.60 C 497.19 190.56 494.93 195.33 490.15 196.29 C 490.57 187.53 490.60 178.75 490.52 169.98 C 490.49 167.84 489.92 165.77 489.44 163.70 M 491.25 164.86 C 491.92 174.92 492.18 185.11 491.16 195.17 C 497.20 190.10 502.34 184.05 507.94 178.51 C 505.26 176.66 502.66 174.70 499.88 173.00 C 500.26 172.50 501.01 171.49 501.39 170.99 C 498.67 169.14 496.29 166.86 493.95 164.56 C 493.27 164.64 491.93 164.78 491.25 164.86 Z" />
<path class="color-1" opacity="1.00" d=" M 317.31 166.33 C 323.22 164.23 329.96 169.86 329.35 175.99 C 328.94 180.45 325.06 183.98 320.78 184.77 C 316.03 185.42 311.50 181.51 310.59 176.97 C 309.88 172.41 313.05 167.82 317.31 166.33 Z" />
<path class="color-1" opacity="1.00" d=" M 89.84 178.84 C 93.90 174.38 101.49 174.11 106.07 177.90 C 108.89 179.98 112.37 181.96 113.33 185.59 C 114.70 190.33 114.37 196.06 110.82 199.80 C 106.16 205.88 94.77 205.76 90.98 198.87 C 92.24 199.69 93.52 200.50 94.82 201.26 C 98.99 203.77 104.68 203.68 108.47 200.48 C 111.18 198.41 112.37 195.06 113.01 191.83 C 112.92 188.22 112.34 184.06 109.26 181.72 C 105.94 179.27 102.43 176.08 98.00 176.41 C 92.37 176.49 87.56 181.59 87.17 187.09 C 86.76 190.99 88.61 194.58 90.10 198.04 C 84.45 193.49 84.62 183.71 89.84 178.84 Z" />
<path class="color-1" opacity="1.00" d=" M 526.20 184.10 C 529.23 179.45 534.15 175.35 539.99 175.47 C 547.19 175.00 554.11 181.74 553.38 189.01 C 552.84 192.65 552.33 196.86 548.99 199.08 L 549.29 198.31 C 550.87 194.45 552.79 190.36 552.03 186.08 C 550.76 180.02 544.24 175.37 538.08 176.81 C 533.00 177.67 529.05 181.48 526.54 185.78 C 523.72 192.74 528.84 201.53 536.27 202.56 C 540.38 203.43 544.40 201.76 548.03 199.98 C 544.31 205.17 536.15 204.92 531.08 201.92 C 525.54 198.26 522.39 190.03 526.20 184.10 Z" />
<path class="color-1" opacity="1.00" d=" M 95.17 189.58 C 93.71 185.19 100.04 181.96 103.33 184.60 C 105.82 186.32 105.57 189.66 106.02 192.30 C 103.72 192.79 101.41 193.27 99.07 193.52 C 97.71 192.27 96.22 191.12 95.17 189.58 Z" />
<path class="color-1" opacity="1.00" d=" M 534.29 185.29 C 536.76 182.94 541.61 182.84 543.30 186.18 C 543.75 188.15 543.30 190.19 543.21 192.19 C 541.52 192.87 539.86 193.65 538.07 193.98 C 536.03 193.68 534.43 192.20 532.63 191.31 C 533.06 189.31 532.52 186.74 534.29 185.29 Z" />
<path class="color-1" opacity="1.00" d=" M 238.61 209.90 C 272.09 210.40 305.57 209.02 339.04 209.98 C 340.90 210.01 342.76 210.22 344.58 210.65 C 353.42 212.83 362.30 215.80 369.68 221.32 C 383.70 231.81 391.77 249.63 390.67 267.08 C 390.19 278.71 385.53 290.08 377.71 298.69 C 369.87 307.75 358.79 313.53 347.21 316.16 C 357.18 334.27 367.59 352.15 377.94 370.05 C 382.75 377.82 386.56 386.39 392.85 393.13 C 396.06 396.86 400.91 399.02 403.31 403.45 C 386.49 404.24 369.66 402.17 352.86 403.47 C 347.07 391.76 339.66 380.96 333.50 369.45 C 326.90 357.79 319.78 346.43 313.46 334.61 C 310.95 330.17 308.61 325.56 305.32 321.64 C 301.56 320.76 297.66 321.72 293.85 321.56 C 293.29 337.03 293.69 352.52 293.48 368.00 C 293.52 374.23 292.83 381.09 296.50 386.53 C 299.05 390.71 303.52 392.99 307.59 395.41 C 310.65 396.88 311.33 400.52 312.30 403.44 C 287.78 403.66 263.24 402.53 238.72 403.53 C 239.04 401.28 238.90 398.90 239.86 396.80 C 242.67 394.92 245.98 393.86 248.58 391.64 C 253.68 387.32 256.42 380.61 256.45 373.99 C 256.51 335.00 256.34 296.00 256.62 257.01 C 256.61 250.71 256.70 244.40 256.45 238.11 C 256.22 233.45 255.01 228.68 252.08 224.97 C 248.97 220.94 244.12 218.91 240.40 215.58 C 238.74 214.20 239.06 211.80 238.61 209.90 M 293.76 240.76 C 293.79 257.13 293.43 273.51 293.79 289.87 C 305.21 289.13 316.64 290.06 328.06 289.86 C 333.86 289.81 339.63 287.82 344.20 284.25 C 352.20 277.90 355.26 266.13 351.31 256.70 C 347.33 247.23 337.23 240.89 327.02 240.96 C 315.94 240.70 304.84 240.99 293.76 240.76 Z" />
<path class="color-1" opacity="1.00" d=" M 415.31 305.31 C 419.98 303.45 425.78 305.53 427.63 310.33 C 430.90 316.52 425.74 324.64 418.95 325.02 C 415.53 325.26 412.83 322.56 411.00 319.98 C 407.44 315.20 409.62 307.30 415.31 305.31 Z" />
<path class="color-1" opacity="1.00" d=" M 215.45 306.46 C 220.82 303.53 227.38 307.60 228.67 313.20 C 231.19 321.00 220.85 329.18 214.14 323.82 C 207.72 319.84 208.68 309.51 215.45 306.46 Z" />
<path class="color-1" opacity="1.00" d=" M 165.38 424.38 C 170.48 419.19 176.41 414.83 180.89 409.04 C 186.43 416.73 191.51 424.77 197.65 432.01 C 195.19 436.85 191.26 441.01 186.70 443.94 C 189.76 439.82 193.62 436.38 196.59 432.19 C 190.40 425.88 186.03 418.10 180.87 410.98 C 177.96 414.60 174.12 417.34 171.23 420.96 C 171.58 422.44 172.11 423.87 172.65 425.30 C 171.90 423.96 171.11 422.66 170.32 421.36 C 161.56 429.34 153.63 438.17 145.00 446.27 C 145.60 444.59 146.55 443.07 147.85 441.86 C 153.73 436.07 159.55 430.22 165.38 424.38 Z" />
<path class="color-1" opacity="1.00" d=" M 457.50 408.97 C 458.46 409.94 459.37 410.96 460.17 412.07 C 459.53 411.77 458.25 411.15 457.61 410.84 C 452.94 418.08 447.52 424.82 442.99 432.14 C 446.71 436.92 451.85 440.39 455.56 445.22 C 463.96 453.98 473.16 461.97 481.26 471.02 C 477.49 469.69 475.21 466.22 472.39 463.62 C 465.02 455.98 457.09 448.90 450.01 441.00 C 447.11 438.17 444.11 435.44 441.26 432.57 C 446.36 424.49 452.18 416.90 457.50 408.97 Z" />
<path class="color-1" opacity="1.00" d=" M 460.87 413.03 C 466.52 416.17 471.13 420.80 475.62 425.38 C 489.28 439.05 502.93 452.74 516.63 466.36 C 517.78 467.40 518.48 468.78 518.93 470.26 C 507.33 459.13 496.20 447.53 484.70 436.30 C 479.33 431.08 474.45 425.38 468.87 420.40 C 466.09 418.07 462.95 416.07 460.87 413.03 Z" />
<path class="color-1" opacity="1.00" d=" M 180.19 421.24 C 180.76 421.80 180.76 421.80 180.19 421.24 Z" />
<path class="color-1" opacity="1.00" d=" M 180.25 425.26 C 180.85 425.85 180.85 425.85 180.25 425.26 Z" />
<path class="color-1" opacity="1.00" d=" M 310.88 431.22 C 313.84 427.15 318.85 425.50 323.73 426.18 C 326.55 429.17 329.99 432.50 329.56 437.00 C 329.37 444.02 320.28 448.33 314.56 444.51 C 310.16 441.82 308.74 435.79 310.88 431.22 Z" />
<path class="color-1" opacity="1.00" d=" M 174.64 429.02 C 175.58 426.68 177.51 430.02 175.04 429.75 L 174.64 429.02 Z" />
<path class="color-1" opacity="1.00" d=" M 436.70 437.80 C 438.97 438.27 440.44 440.02 441.04 442.20 C 439.82 441.17 438.59 440.16 437.38 439.14 C 433.61 444.38 429.02 449.00 425.56 454.45 C 424.80 455.46 426.01 456.62 426.42 457.54 C 426.64 457.90 427.09 458.63 427.31 458.99 C 425.71 458.25 422.65 457.46 423.70 455.07 C 427.40 448.86 432.77 443.85 436.70 437.80 Z" />
<path class="color-1" opacity="1.00" d=" M 202.46 438.63 C 208.02 443.50 211.29 450.38 216.04 455.99 C 214.47 459.58 210.97 461.63 208.32 464.33 C 202.96 469.63 197.63 474.97 192.34 480.35 C 190.99 481.73 189.49 482.96 187.78 483.89 C 195.98 473.90 205.97 465.58 214.83 456.21 C 211.23 452.06 208.41 447.32 205.04 442.99 C 204.10 441.56 202.44 441.00 200.95 440.37 C 201.33 439.94 202.08 439.07 202.46 438.63 Z" />
<path class="color-1" opacity="1.00" d=" M 198.32 444.25 C 197.95 442.55 198.61 441.89 200.30 442.26 C 200.03 443.27 199.37 443.94 198.32 444.25 Z" />
<path class="color-1" opacity="1.00" d=" M 441.78 443.28 C 443.49 442.88 444.14 443.54 443.73 445.26 C 442.74 444.93 442.09 444.26 441.78 443.28 Z" />
<path class="color-1" opacity="1.00" d=" M 142.21 449.25 C 141.82 447.51 142.49 446.85 144.22 447.28 C 143.85 448.25 143.18 448.90 142.21 449.25 Z" />
<path class="color-1" opacity="1.00" d=" M 139.25 452.23 C 138.83 450.49 139.49 449.81 141.23 450.20 C 140.88 451.17 140.22 451.85 139.25 452.23 Z" />
<path class="color-1" opacity="1.00" d=" M 168.95 460.94 C 172.56 457.50 175.96 453.79 179.94 450.75 C 178.16 454.21 174.94 456.55 172.31 459.32 C 160.81 470.14 149.82 481.48 138.63 492.63 C 137.57 493.74 136.20 494.45 134.77 494.99 C 139.24 489.74 144.50 485.24 149.29 480.29 C 155.71 473.71 162.32 467.32 168.95 460.94 Z" />
<path class="color-1" opacity="1.00" d=" M 408.75 453.79 C 409.07 452.80 409.71 452.12 410.68 451.74 C 411.13 453.46 410.49 454.14 408.75 453.79 Z" />
<path class="color-1" opacity="1.00" d=" M 203.24 454.27 C 203.81 454.83 203.81 454.83 203.24 454.27 Z" />
<path class="color-1" opacity="1.00" d=" M 405.76 456.73 C 406.13 455.75 406.81 455.09 407.80 454.76 C 408.16 456.49 407.48 457.15 405.76 456.73 Z" />
<path class="color-1" opacity="1.00" d=" M 426.42 457.54 C 426.48 456.07 427.14 455.46 428.41 455.71 C 428.60 457.01 427.93 457.62 426.42 457.54 Z" />
<path class="color-1" opacity="1.00" d=" M 191.23 458.23 C 191.81 458.80 191.81 458.80 191.23 458.23 Z" />
<path class="color-1" opacity="1.00" d=" M 129.21 462.25 C 128.82 460.51 129.49 459.85 131.23 460.27 C 130.85 461.23 130.18 461.89 129.21 462.25 Z" />
<path class="color-1" opacity="1.00" d=" M 428.14 459.83 C 431.26 462.21 434.16 464.88 437.36 467.16 C 443.67 475.59 451.97 482.21 459.13 489.88 C 469.87 501.34 481.43 511.98 492.76 522.84 C 498.58 530.14 506.38 535.58 512.20 542.88 C 509.28 541.22 506.95 538.76 504.44 536.58 C 494.89 527.46 486.04 517.62 476.21 508.80 C 466.27 499.39 457.32 489.01 447.21 479.78 C 443.52 475.81 439.78 471.89 435.92 468.08 C 433.23 465.42 429.86 463.31 428.14 459.83 Z" />
<path class="color-1" opacity="1.00" d=" M 126.25 465.26 C 125.86 463.54 126.52 462.87 128.24 463.24 C 127.91 464.24 127.24 464.91 126.25 465.26 Z" />
<path class="color-1" opacity="1.00" d=" M 239.05 462.74 C 255.51 476.58 272.09 490.56 291.09 500.86 C 300.59 506.03 309.68 512.28 319.88 515.95 C 326.96 512.97 333.57 508.96 340.28 505.23 C 359.02 494.90 376.62 482.55 392.94 468.72 C 391.64 471.67 388.94 473.54 386.57 475.56 C 371.58 487.64 355.50 498.37 338.59 507.58 C 332.40 510.97 326.36 514.73 319.80 517.37 C 313.00 514.86 306.68 511.18 300.38 507.61 C 294.15 503.79 287.58 500.57 281.47 496.57 C 268.41 488.64 256.52 478.99 244.88 469.15 C 242.69 467.25 240.20 465.49 239.05 462.74 Z" />
<path class="color-1" opacity="1.00" d=" M 444.26 465.27 C 444.81 465.83 444.81 465.83 444.26 465.27 Z" />
<path class="color-1" opacity="1.00" d=" M 446.32 465.11 C 449.30 463.59 446.41 468.46 446.32 465.11 Z" />
<path class="color-1" opacity="1.00" d=" M 123.30 468.26 C 122.88 466.53 123.53 465.85 125.27 466.24 C 124.93 467.21 124.27 467.88 123.30 468.26 Z" />
<path class="color-1" opacity="1.00" d=" M 464.75 466.24 C 466.48 465.82 467.14 466.49 466.75 468.23 C 465.76 467.87 465.10 467.20 464.75 466.24 Z" />
<path class="color-1" opacity="1.00" d=" M 195.05 470.38 C 198.39 470.48 193.52 473.34 195.05 470.38 Z" />
<path class="color-1" opacity="1.00" d=" M 519.74 471.14 C 521.26 471.91 522.63 472.94 523.84 474.15 C 537.86 488.14 551.34 502.65 565.73 516.26 C 568.15 518.82 570.92 521.20 572.48 524.42 C 578.28 537.78 582.46 551.76 585.98 565.88 C 587.15 570.69 589.49 575.38 588.85 580.46 C 585.09 578.55 583.29 574.48 580.35 571.64 C 577.32 567.97 572.74 565.39 571.13 560.72 C 577.07 566.14 582.23 572.33 587.85 578.06 C 583.95 561.96 579.74 545.83 573.59 530.41 C 572.29 526.68 570.75 522.92 567.89 520.11 C 562.32 514.33 556.36 508.96 550.73 503.26 C 543.31 496.01 536.44 488.23 528.98 481.02 C 525.77 477.85 522.49 474.73 519.74 471.14 Z" />
<path class="color-1" opacity="1.00" d=" M 482.26 471.80 C 483.22 472.16 483.88 472.83 484.23 473.81 C 482.50 474.20 481.84 473.53 482.26 471.80 Z" />
<path class="color-1" opacity="1.00" d=" M 485.20 474.76 C 486.18 475.08 486.85 475.73 487.23 476.70 C 485.50 477.14 484.82 476.49 485.20 474.76 Z" />
<path class="color-1" opacity="1.00" d=" M 104.20 486.20 C 107.17 483.44 109.54 479.89 113.25 478.05 C 107.79 484.68 101.61 490.73 95.07 496.29 C 97.26 492.24 101.11 489.51 104.20 486.20 Z" />
<path class="color-1" opacity="1.00" d=" M 476.75 478.23 C 478.46 477.80 479.13 478.45 478.75 480.19 C 477.77 479.85 477.10 479.20 476.75 478.23 Z" />
<path class="color-1" opacity="1.00" d=" M 488.05 477.70 C 489.91 479.22 491.75 480.80 493.46 482.51 C 508.21 497.10 522.99 511.67 537.68 526.32 C 548.23 537.82 560.33 547.85 570.33 559.85 C 566.09 557.91 563.79 553.58 560.39 550.60 C 554.08 543.91 546.96 538.03 540.82 531.17 C 525.93 515.73 510.30 501.03 495.19 485.81 C 492.69 483.22 489.65 481.01 488.05 477.70 Z" />
<path class="color-1" opacity="1.00" d=" M 479.78 480.98 C 483.64 482.60 486.16 486.08 489.11 488.88 C 503.67 503.67 518.78 517.87 533.31 532.69 C 536.55 536.18 540.55 539.07 542.95 543.27 C 541.07 541.74 539.23 540.18 537.53 538.48 C 522.66 523.67 507.73 508.94 492.78 494.21 C 488.41 489.83 483.75 485.73 479.78 480.98 Z" />
<path class="color-1" opacity="1.00" d=" M 180.78 490.98 C 182.67 488.76 184.72 486.68 186.93 484.78 C 185.98 487.66 183.84 490.26 180.78 490.98 Z" />
<path class="color-1" opacity="1.00" d=" M 150.24 491.21 C 149.84 489.47 150.50 488.81 152.23 489.24 C 151.88 490.20 151.21 490.86 150.24 491.21 Z" />
<path class="color-1" opacity="1.00" d=" M 472.08 489.34 C 475.41 489.56 470.50 492.30 472.08 489.34 Z" />
<path class="color-1" opacity="1.00" d=" M 137.88 501.89 C 141.49 498.42 144.68 494.35 149.20 492.00 C 145.41 496.58 140.96 500.56 136.74 504.74 C 130.52 510.86 124.40 517.08 118.05 523.06 C 111.00 529.74 104.70 537.24 97.05 543.27 C 98.31 540.89 100.24 538.99 102.17 537.16 C 108.27 531.60 113.62 525.27 119.83 519.83 C 125.96 513.96 131.84 507.85 137.88 501.89 Z" />
<path class="color-1" opacity="1.00" d=" M 159.44 511.42 C 166.47 505.10 172.35 497.56 179.90 491.82 C 177.35 496.15 173.17 499.15 169.81 502.81 C 164.79 508.12 159.21 512.87 154.29 518.29 C 147.39 525.39 139.90 531.90 133.21 539.21 C 125.09 546.75 117.83 555.26 108.86 561.83 C 105.12 564.12 101.10 565.94 97.47 568.42 C 88.85 574.14 78.83 577.08 69.49 581.35 C 65.01 583.10 60.39 584.48 55.77 585.84 C 55.81 584.88 55.31 583.74 56.01 582.93 C 59.21 578.53 63.61 575.25 67.37 571.37 C 69.39 569.30 71.62 567.40 74.18 566.02 C 68.86 572.65 61.47 577.32 56.52 584.29 C 62.79 582.74 68.86 580.50 74.70 577.74 C 82.88 574.59 91.09 571.31 98.39 566.37 C 102.59 563.49 107.52 561.75 111.39 558.38 C 114.83 555.50 118.10 552.44 121.28 549.28 C 133.98 536.64 146.85 524.17 159.44 511.42 Z" />
<path class="color-1" opacity="1.00" d=" M 92.22 499.25 C 91.84 497.51 92.51 496.86 94.25 497.30 C 93.87 498.26 93.19 498.91 92.22 499.25 Z" />
<path class="color-1" opacity="1.00" d=" M 99.72 528.73 C 110.29 518.90 120.07 508.22 130.93 498.72 C 130.25 500.04 129.42 501.30 128.35 502.35 C 116.84 513.85 104.99 524.99 93.61 536.61 C 85.52 544.85 77.03 552.72 69.55 561.54 C 67.64 563.71 65.67 566.09 62.78 566.94 C 74.70 553.83 87.23 541.28 99.72 528.73 Z" />
<path class="color-1" opacity="1.00" d=" M 89.23 502.24 C 88.85 500.51 89.52 499.84 91.24 500.23 C 90.89 501.21 90.23 501.88 89.23 502.24 Z" />
<path class="color-1" opacity="1.00" d=" M 86.28 505.21 C 85.86 503.47 86.52 502.81 88.25 503.21 C 87.91 504.18 87.25 504.85 86.28 505.21 Z" />
<path class="color-1" opacity="1.00" d=" M 74.81 514.80 C 78.27 511.84 81.00 507.93 85.26 506.02 C 81.00 511.17 75.78 515.39 70.84 519.84 C 67.55 522.73 66.52 527.16 65.18 531.14 C 63.44 536.90 60.80 542.36 59.39 548.23 C 56.86 558.22 54.12 568.17 52.06 578.28 C 55.40 574.82 58.27 570.90 61.95 567.77 C 59.74 572.69 55.36 576.28 51.79 580.23 C 50.44 576.99 51.85 573.64 52.53 570.43 C 54.57 562.45 56.45 554.43 58.61 546.48 C 59.96 541.15 62.40 536.19 63.96 530.92 C 65.22 527.35 66.08 523.49 68.45 520.45 C 70.34 518.32 72.72 516.70 74.81 514.80 Z" />
<path class="color-1" opacity="1.00" d=" M 94.22 546.24 C 93.87 544.51 94.54 543.86 96.25 544.30 C 95.90 545.28 95.23 545.93 94.22 546.24 Z" />
<path class="color-1" opacity="1.00" d=" M 513.02 543.78 C 518.35 548.52 522.78 554.14 528.02 558.96 C 532.84 563.21 538.69 566.02 544.44 568.75 C 547.89 570.49 551.36 572.17 554.97 573.55 C 555.31 573.69 555.98 573.97 556.32 574.11 C 566.13 577.80 575.72 582.50 586.14 584.21 C 580.68 580.31 575.86 575.64 571.19 570.86 C 569.66 569.29 568.21 567.65 566.79 566.00 C 571.51 568.03 574.38 572.56 578.09 575.91 C 580.74 579.00 584.37 580.94 587.43 583.53 C 588.40 584.02 586.90 585.75 586.14 585.45 C 576.30 583.93 567.13 579.70 557.94 576.04 C 549.91 573.13 542.27 569.23 534.76 565.21 C 527.99 561.60 523.04 555.63 517.85 550.16 C 516.04 548.20 513.68 546.51 513.02 543.78 Z" />
<path class="color-1" opacity="1.00" d=" M 543.76 544.30 C 545.46 543.87 546.13 544.52 545.78 546.25 C 544.77 545.93 544.09 545.29 543.76 544.30 Z" />
<path class="color-1" opacity="1.00" d=" M 91.19 549.19 C 90.83 547.47 91.51 546.81 93.22 547.20 C 92.87 548.20 92.19 548.86 91.19 549.19 Z" />
<path class="color-1" opacity="1.00" d=" M 546.78 547.22 C 548.48 546.83 549.15 547.50 548.79 549.22 C 547.78 548.88 547.11 548.22 546.78 547.22 Z" />
<path class="color-1" opacity="1.00" d=" M 88.24 552.20 C 87.82 550.48 88.48 549.80 90.20 550.16 C 89.88 551.15 89.22 551.83 88.24 552.20 Z" />
<path class="color-1" opacity="1.00" d=" M 549.79 550.21 C 551.49 549.82 552.16 550.49 551.80 552.21 C 550.79 551.87 550.11 551.21 549.79 550.21 Z" />
<path class="color-1" opacity="1.00" d=" M 552.78 553.19 C 554.50 552.83 555.15 553.50 554.74 555.23 C 553.74 554.86 553.09 554.18 552.78 553.19 Z" />
<path class="color-1" opacity="1.00" d=" M 555.27 563.15 C 555.86 563.73 555.86 563.73 555.27 563.15 Z" />
<path class="color-1" opacity="1.00" d=" M 551.67 564.79 C 552.64 564.59 554.29 563.76 554.80 565.13 C 554.54 566.09 553.86 566.64 552.78 566.79 C 552.50 566.29 551.95 565.29 551.67 564.79 Z" />
<path class="color-1" opacity="1.00" d=" M 550.06 565.09 L 550.90 564.94 C 552.58 566.71 548.77 567.21 550.06 565.09 Z" />
<path class="color-1" opacity="1.00" d=" M 66.47 576.09 C 67.85 575.71 68.33 576.23 67.92 577.63 C 66.54 577.99 66.06 577.48 66.47 576.09 Z" />
</g>
<g id="color-2">
<path class="color-2" opacity="1.00" d=" M 548.01 51.17 C 552.11 48.67 556.38 46.08 561.25 45.55 C 577.28 43.13 593.54 60.30 588.27 76.17 C 585.49 75.26 582.73 74.28 580.03 73.16 C 581.08 64.14 574.07 55.21 565.00 54.43 C 556.20 54.45 548.65 63.23 549.80 71.94 C 550.26 76.36 553.24 79.93 556.17 83.06 C 555.32 85.34 554.48 87.63 553.66 89.92 C 552.48 89.56 551.29 89.21 550.13 88.82 C 549.01 88.03 548.05 87.04 547.24 85.96 C 543.67 80.99 540.64 75.31 540.81 69.01 C 540.34 62.67 543.54 56.95 547.14 52.00 C 547.36 51.79 547.79 51.38 548.01 51.17 Z" />
<path class="color-2" opacity="1.00" d=" M 56.80 52.81 C 65.93 42.67 83.80 43.10 92.76 53.26 C 99.01 59.63 100.69 69.83 97.08 77.95 C 94.46 83.65 89.89 88.29 84.53 91.48 C 83.62 89.93 82.70 88.39 81.75 86.87 C 81.25 86.09 80.75 85.31 80.23 84.54 C 82.93 82.49 85.87 80.51 87.51 77.45 C 90.53 71.99 90.45 64.57 86.32 59.68 C 81.70 54.52 73.35 52.48 67.25 56.19 C 61.11 59.73 57.95 67.12 59.17 74.05 C 56.43 73.76 53.69 73.42 50.96 73.06 C 49.46 65.86 51.40 57.95 56.80 52.81 Z" />
<path class="color-2" opacity="1.00" d=" M 72.34 62.33 C 77.40 60.62 82.96 65.81 82.15 70.96 C 81.81 77.06 72.24 81.00 68.74 75.23 C 65.36 71.04 67.39 64.22 72.34 62.33 Z" />
<path class="color-2" opacity="1.00" d=" M 561.38 63.22 C 566.10 60.44 571.77 65.14 572.11 70.04 C 572.80 74.47 568.82 79.24 564.22 78.67 C 557.59 77.26 554.74 66.59 561.38 63.22 Z" />
<path class="color-2" opacity="1.00" d=" M 108.31 76.29 C 109.47 77.52 110.64 78.74 111.75 80.02 C 112.51 80.90 113.27 81.78 114.03 82.67 C 107.32 88.95 101.17 95.80 94.57 102.20 C 93.30 100.34 92.02 98.49 90.73 96.65 C 94.86 92.73 99.02 88.77 102.34 84.11 C 104.47 81.61 106.66 79.15 108.31 76.29 Z" />
<path class="color-2" opacity="1.00" d=" M 525.48 83.01 C 527.46 81.47 529.35 79.81 531.05 77.97 C 534.11 81.61 537.34 85.12 540.93 88.24 C 541.13 88.46 541.53 88.89 541.73 89.10 C 543.80 91.81 546.10 94.35 548.61 96.66 C 547.55 96.96 546.50 97.26 545.46 97.56 C 544.90 98.86 544.34 100.16 543.80 101.46 C 537.34 95.68 531.22 89.51 525.48 83.01 Z" />
<path class="color-2" opacity="1.00" d=" M 188.30 84.32 C 194.92 80.46 204.92 82.81 207.87 90.28 C 210.39 95.16 208.39 100.60 205.87 105.01 C 205.66 105.24 205.24 105.71 205.03 105.94 C 202.09 107.39 198.90 109.45 195.48 108.43 C 189.27 107.02 185.60 101.11 183.60 95.51 C 182.13 91.27 184.66 86.56 188.30 84.32 M 193.37 90.28 C 190.70 90.98 190.00 94.42 191.35 96.57 C 192.78 100.56 199.33 100.77 200.79 96.70 C 202.32 92.54 197.06 88.98 193.37 90.28 Z" />
<path class="color-2" opacity="1.00" d=" M 433.94 85.03 C 438.16 83.20 442.97 81.83 447.48 83.47 C 453.51 85.24 457.42 92.32 455.26 98.30 C 453.41 102.41 449.73 105.35 446.01 107.71 C 445.99 105.23 446.02 102.75 446.11 100.27 C 449.80 96.39 446.59 89.11 441.08 89.97 C 437.34 90.08 436.48 94.11 436.14 97.07 C 435.39 99.63 433.64 101.67 431.87 103.59 C 428.12 98.14 429.17 90.99 433.11 85.98 C 433.32 85.74 433.73 85.27 433.94 85.03 Z" />
<path class="color-2" opacity="1.00" d=" M 117.25 90.27 C 117.76 89.01 118.69 88.29 120.03 88.11 C 121.74 89.67 123.32 91.37 125.06 92.91 C 122.55 95.38 120.52 98.29 117.98 100.73 C 112.78 105.49 107.84 110.53 102.90 115.55 C 102.00 113.17 100.60 110.73 100.98 108.10 C 101.71 105.74 103.74 104.12 105.40 102.41 C 108.53 99.54 111.47 96.46 114.13 93.15 C 114.41 92.92 114.96 92.47 115.23 92.25 C 116.21 91.90 116.88 91.24 117.25 90.27 Z" />
<path class="color-2" opacity="1.00" d=" M 514.48 93.64 C 516.28 92.01 518.10 90.40 519.91 88.79 C 526.12 95.42 532.61 101.77 539.00 108.22 C 539.99 109.14 541.00 110.05 542.06 110.91 C 542.18 111.35 542.43 112.22 542.55 112.66 C 541.08 114.42 539.74 116.28 538.46 118.17 C 530.16 110.31 521.80 102.43 514.48 93.64 M 538.52 110.02 C 538.10 111.40 538.59 111.88 539.98 111.47 C 540.41 110.06 539.93 109.57 538.52 110.02 Z" />
<path class="color-2" opacity="1.00" d=" M 117.05 112.21 C 121.73 108.08 126.11 103.64 130.63 99.34 C 132.38 100.87 134.16 102.36 135.96 103.83 C 130.33 110.55 124.33 116.96 117.96 122.99 C 116.55 124.37 114.91 125.48 113.20 126.45 C 112.81 127.70 112.40 128.94 112.01 130.19 C 110.40 127.89 108.72 125.63 106.91 123.48 C 107.55 123.07 108.19 122.66 108.83 122.25 C 111.11 119.04 113.80 116.17 116.22 113.08 C 116.43 112.86 116.84 112.43 117.05 112.21 Z" />
<path class="color-2" opacity="1.00" d=" M 503.31 104.80 C 505.27 102.99 507.18 101.12 509.07 99.23 C 515.21 105.11 520.92 111.44 526.75 117.64 C 525.18 119.84 523.61 122.02 522.00 124.19 C 515.89 117.61 509.49 111.31 503.31 104.80 Z" />
<path class="color-2" opacity="1.00" d=" M 167.13 114.22 C 171.85 110.49 175.73 105.82 180.46 102.09 C 181.93 104.76 183.67 107.26 185.82 109.43 C 175.79 121.17 164.19 131.41 153.36 142.37 C 143.82 152.17 134.04 161.71 124.47 171.47 C 121.19 174.77 118.04 178.20 114.52 181.23 C 112.47 178.49 110.14 175.93 108.42 172.95 C 109.46 171.16 110.84 169.60 112.17 168.01 C 113.37 166.66 114.70 165.41 116.10 164.26 C 125.00 156.48 133.16 147.87 141.51 139.51 C 149.45 131.04 158.23 123.42 166.24 115.04 C 166.46 114.84 166.90 114.42 167.13 114.22 Z" />
<path class="color-2" opacity="1.00" d=" M 243.62 139.55 C 268.69 127.26 293.80 115.00 319.15 103.32 C 322.87 103.89 326.13 106.02 329.56 107.47 C 349.57 116.57 369.22 126.40 389.09 135.80 C 419.03 150.32 449.57 163.71 481.17 174.19 C 480.22 185.11 481.01 196.06 481.01 207.00 C 481.01 218.33 481.15 229.67 481.17 241.00 C 481.08 268.99 481.81 297.18 477.03 324.88 C 474.21 343.18 468.63 360.98 460.80 377.75 C 451.17 400.31 437.23 420.78 421.44 439.45 C 418.15 443.25 414.64 446.87 411.64 450.92 C 411.40 451.13 410.92 451.54 410.68 451.74 C 409.71 452.12 409.07 452.80 408.75 453.79 C 408.52 454.03 408.04 454.52 407.80 454.76 C 406.81 455.09 406.13 455.75 405.76 456.73 C 401.94 461.12 397.04 464.54 392.94 468.72 C 376.62 482.55 359.02 494.90 340.28 505.23 C 333.57 508.96 326.96 512.97 319.88 515.95 C 309.68 512.28 300.59 506.03 291.09 500.86 C 272.09 490.56 255.51 476.58 239.05 462.74 C 234.94 459.00 230.98 455.07 227.31 450.90 C 221.27 443.23 214.46 436.20 208.46 428.49 C 192.72 407.91 180.59 384.71 171.59 360.46 C 162.67 334.99 158.57 307.94 158.53 281.00 C 158.22 258.00 158.67 235.00 158.61 212.00 C 158.51 199.38 159.01 186.75 158.48 174.13 C 187.81 165.10 215.62 151.94 243.62 139.55 M 296.06 129.11 C 283.66 134.98 271.52 141.40 258.98 146.96 C 241.13 155.19 223.53 163.95 205.30 171.32 C 194.31 175.89 183.53 181.10 171.97 184.13 C 171.61 203.73 171.92 223.35 171.56 242.96 C 171.05 273.72 171.02 304.85 178.03 334.99 C 183.79 357.56 192.69 379.36 204.76 399.29 C 221.40 427.28 244.15 451.29 269.76 471.25 C 282.40 479.77 294.88 488.71 308.72 495.24 C 312.49 496.93 315.95 499.43 319.96 500.53 C 330.59 495.21 341.12 489.62 351.06 483.05 C 366.07 473.86 380.34 463.29 392.67 450.67 C 419.39 425.31 440.38 394.03 453.92 359.78 C 461.19 339.98 465.38 319.07 466.80 298.04 C 468.95 272.75 467.83 247.35 467.99 222.00 C 468.16 209.47 467.35 196.93 467.85 184.40 C 461.76 182.85 456.10 180.10 450.27 177.82 C 412.31 162.97 376.13 144.12 339.37 126.61 C 332.94 123.38 326.32 120.52 319.99 117.09 C 312.26 121.56 303.97 124.97 296.06 129.11 Z" />
<path class="color-2" opacity="1.00" d=" M 453.21 109.90 C 455.12 107.51 457.01 105.11 458.90 102.70 C 465.69 108.74 471.76 115.57 478.87 121.24 C 479.09 121.44 479.53 121.85 479.75 122.05 C 485.68 128.52 492.20 134.40 498.47 140.54 C 502.60 144.44 506.38 148.73 510.86 152.25 C 511.08 152.47 511.51 152.89 511.73 153.11 C 517.69 160.31 524.62 166.63 531.39 173.05 C 530.20 174.36 529.01 175.68 527.82 176.99 C 527.61 177.19 527.19 177.59 526.98 177.80 C 526.08 178.54 525.19 179.28 524.29 180.02 C 517.36 173.18 510.39 166.38 503.47 159.53 C 496.28 152.63 490.13 144.63 482.05 138.69 C 478.79 136.05 476.05 132.83 472.87 130.11 C 470.24 127.76 467.27 125.66 465.29 122.70 C 464.90 121.73 464.21 121.08 463.23 120.75 C 462.98 120.51 462.49 120.02 462.24 119.78 C 461.89 118.78 461.22 118.11 460.23 117.77 C 459.98 117.52 459.49 117.03 459.25 116.79 C 458.90 115.80 458.24 115.13 457.27 114.78 C 457.03 114.58 456.54 114.17 456.29 113.97 C 455.25 112.62 454.23 111.25 453.21 109.90 Z" />
<path class="color-2" opacity="1.00" d=" M 133.31 118.08 C 135.89 115.14 138.93 112.61 141.18 109.38 C 141.73 109.90 142.25 110.44 142.75 111.00 C 144.07 112.51 145.47 113.94 146.90 115.36 C 142.50 120.82 136.97 125.26 132.70 130.84 C 132.49 131.04 132.08 131.46 131.87 131.67 C 128.26 134.38 125.09 137.62 122.15 141.03 C 121.73 140.29 121.33 139.55 120.94 138.81 C 120.88 136.49 120.80 134.16 120.84 131.84 C 124.83 127.10 129.40 122.89 133.31 118.08 M 123.35 136.22 C 123.86 136.71 123.86 136.71 123.35 136.22 Z" />
<path class="color-2" opacity="1.00" d=" M 492.57 115.89 C 494.46 114.06 496.26 112.12 497.96 110.10 C 503.72 116.29 510.04 122.00 515.15 128.77 C 513.92 129.24 512.70 129.73 511.50 130.23 C 513.18 130.34 514.91 130.16 516.59 130.50 C 518.29 131.75 519.70 133.34 521.20 134.83 C 519.77 136.77 518.38 138.75 516.91 140.68 C 516.47 140.45 515.59 140.00 515.15 139.77 C 512.67 137.62 510.21 135.35 508.24 132.72 C 507.86 131.74 507.19 131.09 506.22 130.74 C 505.98 130.50 505.50 130.02 505.26 129.78 C 504.90 128.81 504.24 128.13 503.27 127.77 C 499.98 125.23 497.05 122.14 494.38 118.95 C 493.76 117.93 493.16 116.91 492.57 115.89 M 515.17 132.22 C 514.64 133.84 515.19 134.40 516.82 133.90 C 517.35 132.27 516.80 131.71 515.17 132.22 Z" />
<path class="color-2" opacity="1.00" d=" M 436.41 145.78 C 442.92 138.82 449.77 132.18 456.84 125.80 C 458.22 127.35 459.47 129.03 460.75 130.68 L 460.79 131.37 C 461.30 139.34 464.22 147.08 463.10 155.16 C 453.92 152.92 445.21 149.17 436.41 145.78 Z" />
<path class="color-2" opacity="1.00" d=" M 181.20 128.73 C 181.52 127.66 182.02 126.67 182.71 125.75 C 189.25 132.77 196.62 138.98 202.77 146.37 C 194.05 150.28 184.82 152.82 175.99 156.45 C 173.94 155.83 171.90 155.07 170.14 153.81 C 171.60 149.41 174.54 145.71 176.38 141.49 C 177.94 137.94 179.61 134.44 181.55 131.08 C 181.46 130.49 181.28 129.32 181.20 128.73 Z" />
<path class="color-2" opacity="1.00" d=" M 224.86 172.81 C 257.04 158.70 288.33 142.60 320.00 127.45 C 324.38 129.04 328.42 131.40 332.62 133.40 C 348.34 141.46 364.35 148.92 380.15 156.82 C 405.74 169.43 431.88 180.96 458.56 191.07 C 458.23 218.05 458.81 245.02 458.77 272.00 C 458.86 297.16 456.03 322.49 448.38 346.53 C 441.65 367.67 431.85 387.88 419.10 406.05 C 415.82 410.42 412.86 415.13 408.96 418.97 C 398.32 420.97 387.62 422.64 376.87 423.87 C 366.71 425.96 356.33 426.26 346.02 426.98 C 338.56 427.48 331.18 425.88 323.73 426.18 C 318.85 425.50 313.84 427.15 310.88 431.22 C 310.58 431.16 309.99 431.06 309.69 431.01 C 306.70 429.35 303.31 428.86 299.94 428.91 C 294.59 428.96 289.72 426.51 284.59 425.40 C 272.75 422.74 260.52 423.11 248.54 421.40 C 241.89 420.48 235.50 418.30 228.90 417.13 L 228.16 416.97 C 221.08 408.38 215.49 398.73 209.82 389.19 C 204.31 379.64 199.66 369.62 195.50 359.42 C 184.61 330.97 180.62 300.33 180.48 270.00 C 180.65 243.47 181.04 216.94 181.12 190.41 C 196.23 185.97 210.54 179.27 224.86 172.81 M 317.31 166.33 C 313.05 167.82 309.88 172.41 310.59 176.97 C 311.50 181.51 316.03 185.42 320.78 184.77 C 325.06 183.98 328.94 180.45 329.35 175.99 C 329.96 169.86 323.22 164.23 317.31 166.33 M 238.61 209.90 C 239.06 211.80 238.74 214.20 240.40 215.58 C 244.12 218.91 248.97 220.94 252.08 224.97 C 255.01 228.68 256.22 233.45 256.45 238.11 C 256.70 244.40 256.61 250.71 256.62 257.01 C 256.34 296.00 256.51 335.00 256.45 373.99 C 256.42 380.61 253.68 387.32 248.58 391.64 C 245.98 393.86 242.67 394.92 239.86 396.80 C 238.90 398.90 239.04 401.28 238.72 403.53 C 263.24 402.53 287.78 403.66 312.30 403.44 C 311.33 400.52 310.65 396.88 307.59 395.41 C 303.52 392.99 299.05 390.71 296.50 386.53 C 292.83 381.09 293.52 374.23 293.48 368.00 C 293.69 352.52 293.29 337.03 293.85 321.56 C 297.66 321.72 301.56 320.76 305.32 321.64 C 308.61 325.56 310.95 330.17 313.46 334.61 C 319.78 346.43 326.90 357.79 333.50 369.45 C 339.66 380.96 347.07 391.76 352.86 403.47 C 369.66 402.17 386.49 404.24 403.31 403.45 C 400.91 399.02 396.06 396.86 392.85 393.13 C 386.56 386.39 382.75 377.82 377.94 370.05 C 367.59 352.15 357.18 334.27 347.21 316.16 C 358.79 313.53 369.87 307.75 377.71 298.69 C 385.53 290.08 390.19 278.71 390.67 267.08 C 391.77 249.63 383.70 231.81 369.68 221.32 C 362.30 215.80 353.42 212.83 344.58 210.65 C 342.76 210.22 340.90 210.01 339.04 209.98 C 305.57 209.02 272.09 210.40 238.61 209.90 M 415.31 305.31 C 409.62 307.30 407.44 315.20 411.00 319.98 C 412.83 322.56 415.53 325.26 418.95 325.02 C 425.74 324.64 430.90 316.52 427.63 310.33 C 425.78 305.53 419.98 303.45 415.31 305.31 M 215.45 306.46 C 208.68 309.51 207.72 319.84 214.14 323.82 C 220.85 329.18 231.19 321.00 228.67 313.20 C 227.38 307.60 220.82 303.53 215.45 306.46 Z" />
<path class="color-2" opacity="1.00" d=" M 87.17 187.09 C 87.56 181.59 92.37 176.49 98.00 176.41 C 102.43 176.08 105.94 179.27 109.26 181.72 C 112.34 184.06 112.92 188.22 113.01 191.83 C 110.67 191.92 108.34 192.02 106.02 192.30 C 105.57 189.66 105.82 186.32 103.33 184.60 C 100.04 181.96 93.71 185.19 95.17 189.58 C 96.22 191.12 97.71 192.27 99.07 193.52 C 97.59 196.07 96.17 198.65 94.82 201.26 C 93.52 200.50 92.24 199.69 90.98 198.87 C 90.76 198.66 90.32 198.25 90.10 198.04 C 88.61 194.58 86.76 190.99 87.17 187.09 Z" />
<path class="color-2" opacity="1.00" d=" M 526.54 185.78 C 529.05 181.48 533.00 177.67 538.08 176.81 C 544.24 175.37 550.76 180.02 552.03 186.08 C 552.79 190.36 550.87 194.45 549.29 198.31 C 547.45 196.09 545.35 194.11 543.21 192.19 C 543.30 190.19 543.75 188.15 543.30 186.18 C 541.61 182.84 536.76 182.94 534.29 185.29 C 532.52 186.74 533.06 189.31 532.63 191.31 C 530.82 190.39 528.95 189.57 527.10 188.74 C 526.96 188.00 526.68 186.52 526.54 185.78 Z" />
<path class="color-2" opacity="1.00" d=" M 293.76 240.76 C 304.84 240.99 315.94 240.70 327.02 240.96 C 337.23 240.89 347.33 247.23 351.31 256.70 C 355.26 266.13 352.20 277.90 344.20 284.25 C 339.63 287.82 333.86 289.81 328.06 289.86 C 316.64 290.06 305.21 289.13 293.79 289.87 C 293.43 273.51 293.79 257.13 293.76 240.76 Z" />
<path class="color-2" opacity="1.00" d=" M 455.56 445.22 C 459.74 436.84 462.30 427.36 468.87 420.40 C 474.45 425.38 479.33 431.08 484.70 436.30 C 496.20 447.53 507.33 459.13 518.93 470.26 C 519.13 470.48 519.54 470.92 519.74 471.14 C 522.49 474.73 525.77 477.85 528.98 481.02 C 536.44 488.23 543.31 496.01 550.73 503.26 C 556.36 508.96 562.32 514.33 567.89 520.11 C 570.75 522.92 572.29 526.68 573.59 530.41 C 579.74 545.83 583.95 561.96 587.85 578.06 C 582.23 572.33 577.07 566.14 571.13 560.72 C 570.93 560.51 570.53 560.07 570.33 559.85 C 560.33 547.85 548.23 537.82 537.68 526.32 C 522.99 511.67 508.21 497.10 493.46 482.51 C 491.75 480.80 489.91 479.22 488.05 477.70 C 487.84 477.45 487.44 476.95 487.23 476.70 C 486.85 475.73 486.18 475.08 485.20 474.76 C 484.96 474.52 484.47 474.05 484.23 473.81 C 483.88 472.83 483.22 472.16 482.26 471.80 C 482.01 471.61 481.51 471.21 481.26 471.02 C 473.16 461.97 463.96 453.98 455.56 445.22 Z" />
<path class="color-2" opacity="1.00" d=" M 145.00 446.27 C 153.63 438.17 161.56 429.34 170.32 421.36 C 171.11 422.66 171.90 423.96 172.65 425.30 C 173.30 426.54 173.97 427.78 174.64 429.02 L 175.04 429.75 C 178.01 435.50 182.08 440.77 183.72 447.14 C 182.56 448.43 181.29 449.65 179.94 450.75 C 175.96 453.79 172.56 457.50 168.95 460.94 C 162.32 467.32 155.71 473.71 149.29 480.29 C 144.50 485.24 139.24 489.74 134.77 494.99 C 133.59 496.33 132.31 497.59 130.93 498.72 C 120.07 508.22 110.29 518.90 99.72 528.73 C 87.23 541.28 74.70 553.83 62.78 566.94 C 62.57 567.15 62.16 567.56 61.95 567.77 C 58.27 570.90 55.40 574.82 52.06 578.28 C 54.12 568.17 56.86 558.22 59.39 548.23 C 60.80 542.36 63.44 536.90 65.18 531.14 C 66.52 527.16 67.55 522.73 70.84 519.84 C 75.78 515.39 81.00 511.17 85.26 506.02 C 85.51 505.82 86.02 505.41 86.28 505.21 C 87.25 504.85 87.91 504.18 88.25 503.21 C 88.50 502.97 88.99 502.48 89.23 502.24 C 90.23 501.88 90.89 501.21 91.24 500.23 C 91.48 499.98 91.97 499.50 92.22 499.25 C 93.19 498.91 93.87 498.26 94.25 497.30 C 94.45 497.05 94.87 496.55 95.07 496.29 C 101.61 490.73 107.79 484.68 113.25 478.05 C 116.43 474.64 119.59 471.09 123.30 468.26 C 124.27 467.88 124.93 467.21 125.27 466.24 C 125.52 465.99 126.01 465.51 126.25 465.26 C 127.24 464.91 127.91 464.24 128.24 463.24 C 128.48 463.00 128.97 462.50 129.21 462.25 C 130.18 461.89 130.85 461.23 131.23 460.27 C 133.54 457.29 136.29 454.55 139.25 452.23 C 140.22 451.85 140.88 451.17 141.23 450.20 C 141.48 449.96 141.96 449.49 142.21 449.25 C 143.18 448.90 143.85 448.25 144.22 447.28 C 144.42 447.03 144.81 446.52 145.00 446.27 Z" />
<path class="color-2" opacity="1.00" d=" M 548.15 564.21 C 548.99 563.75 549.84 563.30 550.69 562.86 C 550.54 563.41 550.22 564.53 550.06 565.09 C 548.77 567.21 552.58 566.71 550.90 564.94 L 551.67 564.79 C 551.95 565.29 552.50 566.29 552.78 566.79 C 553.70 568.97 554.29 571.27 554.97 573.55 C 551.36 572.17 547.89 570.49 544.44 568.75 C 545.88 568.17 547.33 567.57 548.79 567.04 C 548.58 566.09 548.36 565.14 548.15 564.21 Z" />
<path class="color-2" opacity="1.00" d=" M 559.98 568.05 C 561.74 569.50 563.48 570.97 565.22 572.45 C 565.59 571.31 565.97 570.17 566.36 569.04 C 567.32 569.93 568.28 570.82 569.26 571.72 C 569.74 571.51 570.71 571.08 571.19 570.86 C 575.86 575.64 580.68 580.31 586.14 584.21 C 575.72 582.50 566.13 577.80 556.32 574.11 C 557.54 572.09 558.76 570.07 559.98 568.05 M 560.17 570.12 C 559.65 571.75 560.20 572.30 561.84 571.78 C 562.34 570.15 561.78 569.59 560.17 570.12 M 566.28 574.08 C 566.31 577.41 569.32 572.63 566.28 574.08 Z" />
</g>
<g id="color-3">
<path class="color-3" opacity="1.00" d=" M 50.96 73.06 C 53.69 73.42 56.43 73.76 59.17 74.05 C 59.38 75.59 59.53 77.16 60.02 78.64 C 64.12 83.52 69.96 87.73 76.69 86.87 C 76.48 87.55 76.06 88.90 75.85 89.58 C 77.33 87.79 79.54 87.21 81.75 86.87 C 82.70 88.39 83.62 89.93 84.53 91.48 C 80.23 93.17 75.73 95.08 70.99 94.45 C 64.26 93.41 58.10 89.29 54.40 83.60 C 52.29 80.47 51.85 76.64 50.96 73.06 M 70.03 88.33 C 68.59 91.33 73.39 88.32 70.03 88.33 M 74.14 88.29 C 72.61 91.27 77.48 88.41 74.14 88.29 Z" />
<path class="color-3" opacity="1.00" d=" M 580.03 73.16 C 582.73 74.28 585.49 75.26 588.27 76.17 C 587.14 79.59 585.60 82.86 583.92 86.04 C 583.69 86.25 583.23 86.68 583.00 86.90 C 579.41 89.45 575.79 92.13 571.60 93.62 C 566.48 95.33 561.07 93.91 555.96 92.89 C 553.69 92.09 551.80 90.50 550.13 88.82 C 551.29 89.21 552.48 89.56 553.66 89.92 C 554.48 87.63 555.32 85.34 556.17 83.06 C 559.25 85.34 562.92 87.08 566.83 87.16 C 573.25 85.26 578.95 79.95 580.03 73.16 Z" />
<path class="color-3" opacity="1.00" d=" M 98.24 109.00 C 103.23 103.43 108.31 97.87 114.13 93.15 C 111.47 96.46 108.53 99.54 105.40 102.41 C 103.74 104.12 101.71 105.74 100.98 108.10 C 100.60 110.73 102.00 113.17 102.90 115.55 C 102.05 116.43 101.19 117.31 100.34 118.19 C 98.77 116.24 97.19 114.28 95.62 112.32 C 96.50 111.21 97.36 110.10 98.24 109.00 Z" />
<path class="color-3" opacity="1.00" d=" M 85.05 101.47 C 86.99 99.93 88.91 98.35 90.73 96.65 C 92.02 98.49 93.30 100.34 94.57 102.20 C 93.08 103.76 91.61 105.33 90.11 106.88 C 88.42 105.07 86.73 103.27 85.05 101.47 Z" />
<path class="color-3" opacity="1.00" d=" M 436.14 97.07 C 438.70 99.94 442.46 100.47 446.11 100.27 C 446.02 102.75 445.99 105.23 446.01 107.71 C 440.99 109.68 434.90 108.17 431.87 103.59 C 433.64 101.67 435.39 99.63 436.14 97.07 Z" />
<path class="color-3" opacity="1.00" d=" M 545.46 97.56 C 546.50 97.26 547.55 96.96 548.61 96.66 C 550.43 98.25 552.28 99.81 554.04 101.47 C 552.30 103.23 550.59 105.02 548.92 106.83 C 547.24 105.01 545.59 103.17 543.80 101.46 C 544.34 100.16 544.90 98.86 545.46 97.56 Z" />
<path class="color-3" opacity="1.00" d=" M 526.75 117.64 C 528.54 119.65 530.57 121.53 531.88 123.92 C 530.81 125.79 529.39 127.42 528.05 129.10 C 526.99 128.75 525.94 128.40 524.90 128.07 C 524.71 127.80 524.35 127.27 524.16 127.01 C 523.47 126.04 522.76 125.09 522.00 124.19 C 523.61 122.02 525.18 119.84 526.75 117.64 Z" />
<path class="color-3" opacity="1.00" d=" M 170.04 139.00 C 173.68 135.50 177.17 131.80 181.20 128.73 C 181.28 129.32 181.46 130.49 181.55 131.08 C 179.61 134.44 177.94 137.94 176.38 141.49 C 174.54 145.71 171.60 149.41 170.14 153.81 C 171.90 155.07 173.94 155.83 175.99 156.45 C 172.52 157.26 168.63 158.60 165.25 156.81 C 162.78 155.09 161.10 152.53 159.35 150.14 C 161.59 147.75 163.90 145.44 166.22 143.13 C 166.48 143.22 167.00 143.40 167.26 143.49 C 167.92 141.84 168.69 140.20 170.04 139.00 Z" />
<path class="color-3" opacity="1.00" d=" M 117.72 134.93 C 118.77 133.91 119.82 132.89 120.84 131.84 C 120.80 134.16 120.88 136.49 120.94 138.81 C 119.90 137.48 118.83 136.19 117.72 134.93 Z" />
<path class="color-3" opacity="1.00" d=" M 463.10 155.16 C 464.22 147.08 461.30 139.34 460.79 131.37 C 463.65 133.78 466.25 136.48 468.72 139.30 C 472.56 143.49 477.53 146.86 480.14 152.04 C 479.40 154.30 478.34 156.45 477.64 158.72 C 476.41 158.75 475.20 158.79 473.99 158.82 C 473.90 158.17 473.73 156.88 473.65 156.23 C 473.30 156.63 472.59 157.43 472.24 157.83 C 469.21 156.87 466.16 156.02 463.10 155.16 Z" />
<path class="color-3" opacity="1.00" d=" M 515.17 132.22 C 516.80 131.71 517.35 132.27 516.82 133.90 C 515.19 134.40 514.64 133.84 515.17 132.22 Z" />
<path class="color-3" opacity="1.00" d=" M 123.35 136.22 C 123.86 136.71 123.86 136.71 123.35 136.22 Z" />
<path class="color-3" opacity="1.00" d=" M 153.55 156.98 C 154.20 156.20 154.88 155.44 155.59 154.70 C 156.15 155.81 156.71 156.92 157.28 158.03 C 158.55 158.56 159.54 159.51 160.43 160.54 C 159.93 160.53 158.92 160.50 158.41 160.49 C 158.04 161.12 157.29 162.38 156.92 163.01 C 155.70 161.05 154.54 159.06 153.55 156.98 Z" />
<path class="color-3" opacity="1.00" d=" M 138.67 170.81 C 144.02 166.72 147.91 161.19 152.79 156.63 C 153.42 158.71 154.14 160.77 154.88 162.82 C 152.64 163.63 148.87 163.25 148.54 166.36 C 147.57 172.51 147.84 178.79 147.26 184.99 C 146.83 188.83 148.02 192.55 148.65 196.30 C 145.09 193.92 142.66 190.32 139.63 187.36 C 136.75 184.08 133.53 181.14 130.56 177.95 C 132.99 175.61 135.59 173.47 138.25 171.41 C 138.36 172.40 138.58 174.38 138.69 175.37 C 139.26 173.87 139.38 172.29 138.67 170.81 M 149.22 162.16 C 149.79 162.74 149.79 162.74 149.22 162.16 Z" />
<path class="color-3" opacity="1.00" d=" M 485.22 159.35 C 485.81 159.94 485.81 159.94 485.22 159.35 Z" />
<path class="color-3" opacity="1.00" d=" M 491.25 164.86 C 491.93 164.78 493.27 164.64 493.95 164.56 C 496.29 166.86 498.67 169.14 501.39 170.99 C 501.01 171.49 500.26 172.50 499.88 173.00 C 502.66 174.70 505.26 176.66 507.94 178.51 C 502.34 184.05 497.20 190.10 491.16 195.17 C 492.18 185.11 491.92 174.92 491.25 164.86 Z" />
<path class="color-3" opacity="1.00" d=" M 536.27 202.56 C 528.84 201.53 523.72 192.74 526.54 185.78 C 526.68 186.52 526.96 188.00 527.10 188.74 C 528.95 189.57 530.82 190.39 532.63 191.31 C 534.43 192.20 536.03 193.68 538.07 193.98 C 539.86 193.65 541.52 192.87 543.21 192.19 C 545.35 194.11 547.45 196.09 549.29 198.31 L 548.99 199.08 C 548.75 199.31 548.27 199.75 548.03 199.98 C 544.40 201.76 540.38 203.43 536.27 202.56 Z" />
<path class="color-3" opacity="1.00" d=" M 99.07 193.52 C 101.41 193.27 103.72 192.79 106.02 192.30 C 108.34 192.02 110.67 191.92 113.01 191.83 C 112.37 195.06 111.18 198.41 108.47 200.48 C 104.68 203.68 98.99 203.77 94.82 201.26 C 96.17 198.65 97.59 196.07 99.07 193.52 Z" />
<path class="color-3" opacity="1.00" d=" M 171.23 420.96 C 174.12 417.34 177.96 414.60 180.87 410.98 C 186.03 418.10 190.40 425.88 196.59 432.19 C 193.62 436.38 189.76 439.82 186.70 443.94 C 185.81 445.09 184.77 446.12 183.72 447.14 C 182.08 440.77 178.01 435.50 175.04 429.75 C 177.51 430.02 175.58 426.68 174.64 429.02 C 173.97 427.78 173.30 426.54 172.65 425.30 C 172.11 423.87 171.58 422.44 171.23 420.96 M 180.19 421.24 C 180.76 421.80 180.76 421.80 180.19 421.24 M 180.25 425.26 C 180.85 425.85 180.85 425.85 180.25 425.26 Z" />
<path class="color-3" opacity="1.00" d=" M 442.99 432.14 C 447.52 424.82 452.94 418.08 457.61 410.84 C 458.25 411.15 459.53 411.77 460.17 412.07 C 460.35 412.31 460.69 412.79 460.87 413.03 C 462.95 416.07 466.09 418.07 468.87 420.40 C 462.30 427.36 459.74 436.84 455.56 445.22 C 451.85 440.39 446.71 436.92 442.99 432.14 Z" />
<path class="color-3" opacity="1.00" d=" M 228.90 417.13 C 235.50 418.30 241.89 420.48 248.54 421.40 C 260.52 423.11 272.75 422.74 284.59 425.40 C 289.72 426.51 294.59 428.96 299.94 428.91 C 303.31 428.86 306.70 429.35 309.69 431.01 C 309.99 431.06 310.58 431.16 310.88 431.22 C 308.74 435.79 310.16 441.82 314.56 444.51 C 320.28 448.33 329.37 444.02 329.56 437.00 C 329.99 432.50 326.55 429.17 323.73 426.18 C 331.18 425.88 338.56 427.48 346.02 426.98 C 356.33 426.26 366.71 425.96 376.87 423.87 C 387.62 422.64 398.32 420.97 408.96 418.97 C 399.42 431.90 388.01 443.35 376.00 453.97 C 359.12 468.42 340.06 480.01 320.87 491.09 C 308.64 486.07 297.92 478.12 286.63 471.34 C 268.94 460.25 253.69 445.75 239.57 430.46 C 235.76 426.23 231.84 422.03 228.90 417.13 Z" />
<path class="color-3" opacity="1.00" d=" M 437.38 439.14 C 438.59 440.16 439.82 441.17 441.04 442.20 C 441.23 442.47 441.59 443.01 441.78 443.28 C 442.09 444.26 442.74 444.93 443.73 445.26 C 447.54 448.03 450.47 451.87 453.95 455.05 C 457.48 458.84 461.59 462.14 464.75 466.24 C 465.10 467.20 465.76 467.87 466.75 468.23 C 470.37 471.18 473.79 474.60 476.75 478.23 C 477.10 479.20 477.77 479.85 478.75 480.19 C 479.01 480.39 479.53 480.78 479.78 480.98 C 483.75 485.73 488.41 489.83 492.78 494.21 C 507.73 508.94 522.66 523.67 537.53 538.48 C 539.23 540.18 541.07 541.74 542.95 543.27 C 543.15 543.52 543.55 544.04 543.76 544.30 C 544.09 545.29 544.77 545.93 545.78 546.25 C 546.03 546.49 546.53 546.98 546.78 547.22 C 547.11 548.22 547.78 548.88 548.79 549.22 C 549.04 549.47 549.54 549.96 549.79 550.21 C 550.11 551.21 550.79 551.87 551.80 552.21 C 552.05 552.45 552.53 552.94 552.78 553.19 C 553.09 554.18 553.74 554.86 554.74 555.23 C 558.82 558.70 562.81 562.39 566.79 566.00 C 568.21 567.65 569.66 569.29 571.19 570.86 C 570.71 571.08 569.74 571.51 569.26 571.72 C 568.28 570.82 567.32 569.93 566.36 569.04 C 565.97 570.17 565.59 571.31 565.22 572.45 C 563.48 570.97 561.74 569.50 559.98 568.05 C 558.76 570.07 557.54 572.09 556.32 574.11 C 555.98 573.97 555.31 573.69 554.97 573.55 C 554.29 571.27 553.70 568.97 552.78 566.79 C 553.86 566.64 554.54 566.09 554.80 565.13 C 554.29 563.76 552.64 564.59 551.67 564.79 L 550.90 564.94 L 550.06 565.09 C 550.22 564.53 550.54 563.41 550.69 562.86 C 549.84 563.30 548.99 563.75 548.15 564.21 C 548.36 565.14 548.58 566.09 548.79 567.04 C 547.33 567.57 545.88 568.17 544.44 568.75 C 538.69 566.02 532.84 563.21 528.02 558.96 C 522.78 554.14 518.35 548.52 513.02 543.78 C 512.82 543.55 512.41 543.11 512.20 542.88 C 506.38 535.58 498.58 530.14 492.76 522.84 C 481.43 511.98 469.87 501.34 459.13 489.88 C 451.97 482.21 443.67 475.59 437.36 467.16 C 434.16 464.88 431.26 462.21 428.14 459.83 C 427.93 459.62 427.52 459.20 427.31 458.99 C 427.09 458.63 426.64 457.90 426.42 457.54 C 427.93 457.62 428.60 457.01 428.41 455.71 C 427.14 455.46 426.48 456.07 426.42 457.54 C 426.01 456.62 424.80 455.46 425.56 454.45 C 429.02 449.00 433.61 444.38 437.38 439.14 M 444.26 465.27 C 444.81 465.83 444.81 465.83 444.26 465.27 M 446.32 465.11 C 446.41 468.46 449.30 463.59 446.32 465.11 M 472.08 489.34 C 470.50 492.30 475.41 489.56 472.08 489.34 M 555.27 563.15 C 555.86 563.73 555.86 563.73 555.27 563.15 Z" />
<path class="color-3" opacity="1.00" d=" M 200.95 440.37 C 202.44 441.00 204.10 441.56 205.04 442.99 C 208.41 447.32 211.23 452.06 214.83 456.21 C 205.97 465.58 195.98 473.90 187.78 483.89 C 187.57 484.11 187.14 484.55 186.93 484.78 C 184.72 486.68 182.67 488.76 180.78 490.98 C 180.56 491.19 180.12 491.61 179.90 491.82 C 172.35 497.56 166.47 505.10 159.44 511.42 C 146.85 524.17 133.98 536.64 121.28 549.28 C 118.10 552.44 114.83 555.50 111.39 558.38 C 107.52 561.75 102.59 563.49 98.39 566.37 C 91.09 571.31 82.88 574.59 74.70 577.74 C 68.86 580.50 62.79 582.74 56.52 584.29 C 61.47 577.32 68.86 572.65 74.18 566.02 C 78.75 561.32 83.21 556.40 88.24 552.20 C 89.22 551.83 89.88 551.15 90.20 550.16 C 90.45 549.92 90.94 549.43 91.19 549.19 C 92.19 548.86 92.87 548.20 93.22 547.20 C 93.47 546.96 93.97 546.48 94.22 546.24 C 95.23 545.93 95.90 545.28 96.25 544.30 C 96.45 544.04 96.85 543.53 97.05 543.27 C 104.70 537.24 111.00 529.74 118.05 523.06 C 124.40 517.08 130.52 510.86 136.74 504.74 C 140.96 500.56 145.41 496.58 149.20 492.00 C 149.46 491.80 149.98 491.40 150.24 491.21 C 151.21 490.86 151.88 490.20 152.23 489.24 C 154.54 485.96 157.80 483.46 160.52 480.52 C 167.81 473.48 174.55 465.85 182.41 459.43 C 187.78 454.46 192.61 448.82 198.32 444.25 C 199.37 443.94 200.03 443.27 200.30 442.26 C 200.47 441.79 200.79 440.85 200.95 440.37 M 203.24 454.27 C 203.81 454.83 203.81 454.83 203.24 454.27 M 191.23 458.23 C 191.81 458.80 191.81 458.80 191.23 458.23 M 195.05 470.38 C 193.52 473.34 198.39 470.48 195.05 470.38 M 66.47 576.09 C 66.06 577.48 66.54 577.99 67.92 577.63 C 68.33 576.23 67.85 575.71 66.47 576.09 Z" />
<path class="color-3" opacity="1.00" d=" M 560.17 570.12 C 561.78 569.59 562.34 570.15 561.84 571.78 C 560.20 572.30 559.65 571.75 560.17 570.12 Z" />
<path class="color-3" opacity="1.00" d=" M 566.28 574.08 C 569.32 572.63 566.31 577.41 566.28 574.08 Z" />
</g>
</svg>
